<svg xmlns="http://www.w3.org/2000/svg" width="260" height="173.81" viewBox="0 0 260 173.81">
  <g id="download_1_" data-name="download (1)" transform="translate(0 146.896)">
    <path id="Path_36592" data-name="Path 36592" d="M259.992,30.882c-46.6-3.238-52.933-18.071-110.818-18.071-65,0-65,18.694-130,18.694-7.113,0-13.451-.224-19.178-.623V.59H259.992Z" transform="translate(0 -4.59)" fill="rgba(255,0,0,0.32)"/>
    <path id="Path_36593" data-name="Path 36593" d="M0,39.217a239.628,239.628,0,0,0,32.178,1.931c65,0,65-18.634,130-18.634,52.025,0,62.414,11.935,97.818,16.7V15.06H0Z" transform="translate(0 -19.06)" fill="rgba(255,0,0,0.55)"/>
    <path id="Path_36594" data-name="Path 36594" d="M260.992,67.643c-41.145-2.758-48.614-11.791-104.118-11.791-65.5,0-65.5,12.585-131.008,12.585-10,0-17.454-.3-24.866-.795V48.16H260.992Z" transform="translate(-1 -54.16)" fill="red"/>
  </g>
  <path id="Rectangle_17538" data-name="Rectangle 17538" d="M18,0H242a18,18,0,0,1,18,18V141.9a0,0,0,0,1,0,0H0a0,0,0,0,1,0,0V18A18,18,0,0,1,18,0Z" fill="red"/>
</svg>
