<svg id="united-kingdom" xmlns="http://www.w3.org/2000/svg" width="30.462" height="30.463" viewBox="0 0 30.462 30.463">
  <path id="Path_29522" data-name="Path 29522" d="M9.388,13.65A15.166,15.166,0,0,0,7.207,18.4h6.928Zm8.283-5.991a15.176,15.176,0,0,0-4.811,2.39l4.811,4.811ZM13.218,34.766A15.154,15.154,0,0,0,17.671,36.9V30.313ZM7.382,26.778a15.174,15.174,0,0,0,2.262,4.491l4.491-4.491Z" transform="translate(-6.706 -7.049)" fill="#29337a"/>
  <path id="Path_29523" data-name="Path 29523" d="M8.757,12.287q-.128.175-.251.354l4.747,4.747H6.324q-.168.646-.279,1.3h9.118ZM11.982,33.5c.116.086.235.169.353.251L16.789,29.3v6.589c.428.125.862.233,1.3.32V27.394L11.982,33.5ZM6.161,24.463q.14.659.338,1.3h6.753L8.761,30.259a15.333,15.333,0,0,0,1.619,1.873l7.668-7.668ZM16.789,6.649v7.2L11.977,9.039a15.322,15.322,0,0,0-1.858,1.634l7.973,7.973V6.329q-.659.131-1.3.32Z" transform="translate(-5.823 -6.039)" fill="#fff"/>
  <path id="Path_29524" data-name="Path 29524" d="M50.575,60.5l-.046.046h.046Zm1.259-1.259h.046V59.2Zm5.862-5.772h-.044v.044Zm-7.075-1.3-.045-.045v.045Zm1.259,1.259v.045h.045Z" transform="translate(-39.609 -40.819)" fill="#d32030"/>
  <path id="Path_29525" data-name="Path 29525" d="M85.566,33.4V36.81a15.145,15.145,0,0,0,4.515-2.116l-3.7-3.7A11.983,11.983,0,0,1,85.566,33.4Zm.835-19.5L90.44,9.852a15.174,15.174,0,0,0-4.874-2.37v3.507A13.5,13.5,0,0,1,86.4,13.891Zm7.281,17.333a15.189,15.189,0,0,0,2.325-4.58H89.1Zm2.5-12.96a15.16,15.16,0,0,0-2.244-4.836L89.1,18.263Z" transform="translate(-66.22 -6.915)" fill="#252f6c"/>
  <path id="Path_29526" data-name="Path 29526" d="M83.171,24.636l1.047,1.047,5.01,5.01c.114-.142.227-.284.335-.43l-4.58-4.58h6.9q.2-.644.338-1.3H83.269c-.015.185-.08.074-.1.258ZM82.123,13.694l4.541-4.541q-.17-.133-.344-.261L82.282,12.93C82.324,13.09,82.084,13.53,82.123,13.694Zm-.677-3.946V6.521q-.645-.181-1.3-.3V7.791A8.427,8.427,0,0,1,81.446,9.748Zm1.622,8.858h9.273q-.111-.658-.279-1.3h-7.08l4.836-4.836a15.314,15.314,0,0,0-1.581-1.91L82.789,16C82.936,16.991,83,17.565,83.068,18.606ZM82.042,29.814l3.92,3.92A15.275,15.275,0,0,0,87.8,32.243l-5.156-5.156a26.448,26.448,0,0,1-.6,2.727Zm-1.9,4.585v1.754q.659-.123,1.3-.3V32.435a8.472,8.472,0,0,1-1.3,1.964Z" transform="translate(-62.1 -5.954)" fill="#e7e7e7"/>
  <path id="Path_29527" data-name="Path 29527" d="M89.87,25.274l5.447-5.447a15.23,15.23,0,0,0-1.572-1.4L89.465,22.7C89.655,23.5,89.742,24.409,89.87,25.274Z" transform="translate(-69.181 -15.225)" fill="#d71f28"/>
  <path id="Path_29528" data-name="Path 29528" d="M65.295,5.2ZM66.055,35.646Zm0,0a15.266,15.266,0,0,0,2.811-.264V33.628c-.8.867-1.736,2.018-2.811,2.018Z" transform="translate(-50.824 -5.183)" fill="#d32030"/>
  <path id="Path_29529" data-name="Path 29529" d="M100.244,57.733H91.092a40.937,40.937,0,0,1-.044,5.772h9.081a15.2,15.2,0,0,0,.116-5.772Zm-9.17,6.03c-.085.9-.379,1.6-.526,2.45L95.7,71.369a15.372,15.372,0,0,0,1.427-1.55l-5.01-5.01Z" transform="translate(-70.004 -45.081)" fill="#d71f28"/>
  <path id="Path_29530" data-name="Path 29530" d="M71.266,7.074V5.387a15.3,15.3,0,0,0-2.811-.263C69.53,5.124,70.466,6.207,71.266,7.074Z" transform="translate(-53.224 -5.124)" fill="#d32030"/>
  <path id="Path_29531" data-name="Path 29531" d="M85.566,42.759a16.407,16.407,0,0,0,1.061-2.814l-1.061-1.061Zm1.193-20.522a17.133,17.133,0,0,0-1.193-3.295V23.43Z" transform="translate(-66.22 -15.62)" fill="#29337a"/>
  <path id="Path_29532" data-name="Path 29532" d="M83.466,28.416q.026-.276.048-.553h-.6Zm-2.02-11.167V12.762a8.424,8.424,0,0,0-1.3-1.957v8.354l2.62-2.62q-.059-.242-.122-.483Zm-1.26,4.842h3.372c-.066-1.041-.171-2.066-.318-3.054Zm-.044,16.444a8.435,8.435,0,0,0,1.3-1.957V32.7l1.061,1.061a26.249,26.249,0,0,0,.613-2.718l-2.978-2.978Z" transform="translate(-62.1 -9.439)" fill="#fff"/>
  <path id="Path_29533" data-name="Path 29533" d="M23.165,34.22V23.754l2.978,2.978q.224-1.308.346-2.63l-.553-.553h.6a40.939,40.939,0,0,0,.044-5.772H23.209l3.054-3.054q-.185-1.259-.478-2.5l-2.619,2.62V6.49a3.783,3.783,0,0,0-2.811-1.366,15.336,15.336,0,0,0-2.961.29V17.731L9.419,9.758a15.378,15.378,0,0,0-1.363,1.613l5.1,5.1,1.3,1.3H5.345a15.194,15.194,0,0,0,.116,5.772H17.347L9.679,31.216a15.354,15.354,0,0,0,1.6,1.373l6.111-6.111V35.3a15.342,15.342,0,0,0,2.961.29,3.783,3.783,0,0,0,2.811-1.366Z" transform="translate(-5.123 -5.124)" fill="#e51d35"/>
</svg>
