<svg id="eye" xmlns="http://www.w3.org/2000/svg" width="28.842" height="18.024" viewBox="0 0 28.842 18.024">
    <path id="Path_29101" data-name="Path 29101" d="M30.4,124.024a13.309,13.309,0,0,1-5.648-1.352,21.443,21.443,0,0,1-4.482-2.9,27.406,27.406,0,0,1-4.1-4.188.955.955,0,0,1,0-1.154,27.406,27.406,0,0,1,4.1-4.188,21.442,21.442,0,0,1,4.482-2.9A13.309,13.309,0,0,1,30.4,106a13.309,13.309,0,0,1,5.648,1.352,21.442,21.442,0,0,1,4.482,2.9,27.065,27.065,0,0,1,4.1,4.188.955.955,0,0,1,0,1.154,27.406,27.406,0,0,1-4.1,4.188,21.443,21.443,0,0,1-4.482,2.9A13.309,13.309,0,0,1,30.4,124.024Zm-12.221-9.012c1.508,1.784,6.489,7.09,12.221,7.09s10.712-5.305,12.221-7.09c-1.508-1.784-6.489-7.09-12.221-7.09S19.684,113.228,18.175,115.012Z" transform="translate(-15.975 -106)" fill="#86959f"/>
    <path id="Path_29102" data-name="Path 29102" d="M188.326,192.652a4.326,4.326,0,1,1,4.326-4.326A4.331,4.331,0,0,1,188.326,192.652Zm0-6.729a2.4,2.4,0,1,0,2.4,2.4A2.4,2.4,0,0,0,188.326,185.923Z" transform="translate(-173.905 -179.314)" fill="#86959f"/>
  </svg>
  