<svg xmlns="http://www.w3.org/2000/svg" width="24.388" height="21.87" viewBox="0 0 24.388 21.87">
    <g id="Group_29070" data-name="Group 29070" transform="translate(0.75 0.75)">
      <path id="Path_36647" data-name="Path 36647" d="M17.419,5.561,12.342,9.648a2.646,2.646,0,0,1-3.268,0L3.954,5.561" transform="translate(0.752 1.057)" fill="none" stroke="#1449af" stroke-linecap="round" stroke-linejoin="round" stroke-width="1.5" fill-rule="evenodd"/>
      <path id="Path_36648" data-name="Path 36648" d="M5.817,0h11.22A5.9,5.9,0,0,1,21.3,1.893,5.971,5.971,0,0,1,22.876,6.3V14.07A5.971,5.971,0,0,1,21.3,18.478a5.9,5.9,0,0,1-4.261,1.893H5.817C2.342,20.37,0,17.543,0,14.07V6.3C0,2.827,2.342,0,5.817,0Z" transform="translate(0 0)" fill="none" stroke="#1449af" stroke-linecap="round" stroke-linejoin="round" stroke-width="1.5" fill-rule="evenodd"/>
    </g>
  </svg>
  