<svg id="download_1_" data-name="download (1)" xmlns="http://www.w3.org/2000/svg" width="1366" height="163.049" viewBox="0 0 1366 163.049">
    <path id="Path_36592" data-name="Path 36592" d="M1366,160.352c-244.823-17.076-278.109-95.308-582.236-95.308-341.5,0-341.5,98.594-683,98.594-37.373,0-70.669-1.181-100.764-3.286V.59H1366Z" transform="translate(0 -0.59)" fill="rgba(20,73,175,0.34)"/>
    <path id="Path_36593" data-name="Path 36593" d="M0,142.465c46.38,6.266,100.913,10.187,169.064,10.187,341.5,0,341.5-98.276,683-98.276,273.339,0,327.925,62.948,513.936,88.1V15.06H0Z" transform="translate(0 -15.06)" fill="rgba(20,73,175,0.65)"/>
    <path id="Path_36594" data-name="Path 36594" d="M1366,150.916c-214.5-14.545-258.718-62.185-548.086-62.185-341.5,0-341.5,66.377-683,66.377C82.782,155.1,38.643,153.536,0,150.916V48.16H1366Z" transform="translate(0 -48.16)" fill="#1449af"/>
  </svg>
  