<svg id="Component_12_1" data-name="Component 12 – 1" xmlns="http://www.w3.org/2000/svg" width="120.341" height="47.975" viewBox="0 0 120.341 47.975">
    <path id="Path_36582" data-name="Path 36582" d="M245.832,287.584c.918.061,1.835.168,2.726.28,4.236.531,8.2,1.876,12.475,2.494,15.487,2.237,28.424,1.987,41.664-6.586,7.817-5.062,14.463-12.492,20.732-19.092,4.106-4.324,8.713-8.591,14.646-10.426s13.493-.463,16.632,4.492c2.517,3.976,1.292,7.96,1.119,12.177-.205,5.033.639,10.263.782,15.314.043,1.557-1.571,4.152-2.223,5.581a7.886,7.886,0,0,1-2.486,3.294c-2.756,1.964-7.417,2.1-10.818,2.368-4.4.344-8.775.973-13.21.909-20.3-.3-40.618.442-60.928.271a52.011,52.011,0,0,1-9.721-.572,48.538,48.538,0,0,0-8.251-.556,17.3,17.3,0,0,1-7.164-1.573c-2.133-1.089-3.8-2.973-3.926-5.072a2.65,2.65,0,0,1,.446-1.754C239.6,287.41,243.775,287.447,245.832,287.584Z" transform="translate(-236.268 -250.709)" fill="#1d233d" opacity="0.08"/>
    <path id="Path_36583" data-name="Path 36583" d="M288.547,308.352c-5.2.123-10.4.323-15.614.341-5.27.017-10.537-.239-15.788-.641-2.627-.2-5.247-.457-7.869-.7-1.985-.183-3.864.179-5.784-.4a13.162,13.162,0,0,1-5.676-2.922c-1.751-1.765-3.038-5.676-1.492-7.869,1.687-2.392,6.329-1.447,8.832-.914,3.356.714,6.694,1.5,10.041,2.246,2.839.632,5.56,1.911,8.417,2.2l16.016,1.622c3.35.339,6.777.675,10.062-.017-4.532.865-9.178.736-13.778.651a125.166,125.166,0,0,1-12.935-.4c-2.618-.318-11.417-3.7-13.366-1.151-4.393,5.755,18.1,5.11,19.492,5.124l27.736.275c13.154.13,30.421,1.5,42.442-4.338,4.508-2.191,8.318-5.829,9.768-10.3.986-3.042.857-6.3,1.594-9.4.173-.728.892-1.642,1.566-1.221a1.15,1.15,0,0,1,.423.8,53.636,53.636,0,0,1,1.127,10.782,22.082,22.082,0,0,1-1.477,8.93,11.579,11.579,0,0,1-6.621,6.427,19.017,19.017,0,0,1-4.728.809C323.667,309.671,305.947,307.941,288.547,308.352Z" transform="translate(-235.41 -261.03)" fill="#1d233d" opacity="0.06" style="mix-blend-mode: color-dodge;isolation: isolate"/>
    <path id="Path_36584" data-name="Path 36584" d="M408.8,268.663c.082-.485.155-3.09-2.57-2.456-1.37.319-.229,1.992.029,2.492a1.527,1.527,0,0,0,1.5.732C408.482,269.382,408.748,268.986,408.8,268.663Z" transform="translate(-290.267 -255.545)" fill="#1d233d" opacity="0.06" style="mix-blend-mode: color-dodge;isolation: isolate"/>
    <path id="Path_36585" data-name="Path 36585" d="M236.466,255.658c2.916-7.774,13.53-6.954,20.151-6.2,10.951,1.241,22.247.569,33.282.611a26.675,26.675,0,0,0-13.36,8.061c-6.841,8.143-3.968,17.967,2.429,25.409,5.8,6.743,14.609,9.94,23.061,12.7-6.229,1.454-12.686-.318-19.03-1.133-9.254-1.189-18.343.651-27.607-.075-3.881-.3-7.843-.73-11.356-2.358-7.527-3.49-8.186-11.04-8.539-18.183a95.893,95.893,0,0,1,.009-13.123A22.453,22.453,0,0,1,236.466,255.658Z" transform="translate(-235.272 -248.994)" fill="#1d233d" opacity="0.05"/>
    <path id="Path_36586" data-name="Path 36586" d="M241.214,253.247c-1.952,1.3-3.34,3.434-3.915,6.948a128.207,128.207,0,0,0-1.432,13.834,55.35,55.35,0,0,0,1.147,15.642,8.985,8.985,0,0,1,1.075-3.859c1.963-3.074,8.9-1.122,12.154-1.062a10.172,10.172,0,0,1-3.772-2.263,2.386,2.386,0,0,1-.774-1.168,2.2,2.2,0,0,1,.372-1.481c2.1-3.7,7.934-5.037,11.879-6.507a145.5,145.5,0,0,1,38.858-9.05c13.735-1.3,27.559-1.752,41.259-3.381,2.611-.31,6.16-.483,8.582-1.325,1.665-.578,3.116-2,3.04-3.617-.378-8.125-20.42-4.922-25.019-4.962-7.861-.068-15.722.075-23.584.085-10.072.013-20.141-.307-30.213-.341-5.059-.017-10.119.036-15.173.248C250.017,251.226,244.711,250.911,241.214,253.247Z" transform="translate(-235.457 -249.535)" fill="#1d233d" opacity="0.02" style="mix-blend-mode: darken;isolation: isolate"/>
    <path id="Path_36587" data-name="Path 36587" d="M248.115,257.823c3.384-.754,7.22-.648,10.519-1.228a99.046,99.046,0,0,1,15.31-1.028c6.284-.118,12.523.406,18.812.5,12,.184,24.092.144,36.064.229,5.575.039,10.957,1.791,16.492,2.4a9.869,9.869,0,0,0,4.782-.362c1.478-.6,2.646-2.07,2.309-3.515-.451-1.934-3.041-2.654-5.2-2.816-10.234-.766-20.815.6-31.07.779-10.678.181-21.353-.26-32.021-.623-12.616-.428-25.144-.385-37.75-.041a10.3,10.3,0,0,0-4.859.93c-5.122,2.942-4.571,9.217-4.856,13.936a162.744,162.744,0,0,0,.131,21.616q.38-6.577.758-13.155a33.494,33.494,0,0,1,1.436-9.348,12.52,12.52,0,0,1,6.194-7.295A14.085,14.085,0,0,1,248.115,257.823Z" transform="translate(-235.684 -250.056)" fill="#1d233d" opacity="0.06" style="mix-blend-mode: color-dodge;isolation: isolate"/>
    <path id="Path_36590" data-name="Path 36590" d="M241.277,261.122a7.93,7.93,0,0,1,3.347-1.077c2.39-.233,4.642.68,6.987.58s4.714-.168,7.055-.446c2.753-.327,5.41-1.144,5.437-2.476.015-.711-.678-1.4-1.7-1.961-4.31-2.358-11.688-1.6-16.9-.288a16.889,16.889,0,0,0-3.727,1.4c-.709.373-2.3,1.4-2.208-.346a2.5,2.5,0,0,1,.684-1.395,11.556,11.556,0,0,1,1.28-1.316c-.206.124-.413.248-.61.385a7.171,7.171,0,0,0-2.351,3.021,21.457,21.457,0,0,0-1.14,3.7c-1.13,4.645-1.154,9.734-1.327,14.5a111.584,111.584,0,0,1,1.549-11.426,1.1,1.1,0,0,0,1.25-.273C239.778,262.826,240.118,261.833,241.277,261.122Z" transform="translate(-235.589 -250.834)" fill="#1d233d" opacity="0.06"/>
    <path id="Path_36591" data-name="Path 36591" d="M286.871,256.4c-1.2.6-1.06,2.162,1.536,2.088a3.114,3.114,0,0,0,1.347-.282c.832-.452.478-1.388-.46-1.753A3.013,3.013,0,0,0,286.871,256.4Z" transform="translate(-251.68 -251.74)" fill="#1d233d" opacity="0.06"/>
  </svg>
  