<svg xmlns="http://www.w3.org/2000/svg" xmlns:xlink="http://www.w3.org/1999/xlink" width="56.926"
    height="56.926" viewBox="0 0 56.926 56.926">
    <defs>
        <filter id="Path_36603" x="0" y="0" width="56.926" height="56.926"
            filterUnits="userSpaceOnUse">
            <feOffset dy="3" input="SourceAlpha" />
            <feGaussianBlur stdDeviation="3" result="blur" />
            <feFlood flood-opacity="0.58" />
            <feComposite operator="in" in2="blur" />
        </filter>
        <linearGradient id="linear-gradient" x1="0.275" y1="1.41" x2="0.575" y2="0.365"
            gradientUnits="objectBoundingBox">
            <stop offset="0" stop-color="#fff" />
            <stop offset="0.076" stop-color="#e5e4e4" />
            <stop offset="0.262" stop-color="#aaa9a9" />
            <stop offset="0.441" stop-color="#7a7778" />
            <stop offset="0.609" stop-color="#545152" />
            <stop offset="0.763" stop-color="#393536" />
            <stop offset="0.898" stop-color="#282425" />
            <stop offset="1" stop-color="#231f20" />
        </linearGradient>
        <radialGradient id="radial-gradient" cx="0.387" cy="3.556" r="3.472"
            gradientTransform="matrix(-0.554, 0, 0, 1.014, 0.585, -0.048)"
            gradientUnits="objectBoundingBox">
            <stop offset="0" stop-color="#231f20" />
            <stop offset="0.102" stop-color="#282425" />
            <stop offset="0.237" stop-color="#393536" />
            <stop offset="0.391" stop-color="#545152" />
            <stop offset="0.559" stop-color="#7a7778" />
            <stop offset="0.738" stop-color="#aaa9a9" />
            <stop offset="0.924" stop-color="#e5e4e4" />
            <stop offset="1" stop-color="#fff" />
        </radialGradient>
        <linearGradient id="linear-gradient-2" x1="0.5" y1="1.538" x2="0.5" y2="0.3"
            gradientUnits="objectBoundingBox">
            <stop offset="0" stop-color="#fff" />
            <stop offset="0.476" stop-color="#8f8d8e" />
            <stop offset="0.836" stop-color="#413e3e" />
            <stop offset="1" stop-color="#231f20" />
        </linearGradient>
        <radialGradient id="radial-gradient-2" cx="0.255" cy="1.487" r="1.703"
            gradientTransform="matrix(-0.477, 0, 0, 1, 0.505, 0)" xlink:href="#linear-gradient" />
        <radialGradient id="radial-gradient-3" cx="-2.395" cy="-0.147" r="2.004"
            gradientTransform="matrix(-2.294, 0, 0, 1, -11.633, 0)" xlink:href="#linear-gradient" />
        <radialGradient id="radial-gradient-4" cx="0.208" cy="-0.436" r="0.861"
            gradientTransform="matrix(-0.881, 0, 0, 1, 0.425, 0)" xlink:href="#linear-gradient" />
        <radialGradient id="radial-gradient-5" cx="0.034" cy="0.57" r="0.384"
            gradientTransform="matrix(-1.319, 0, 0, 1, -0.07, 0)" xlink:href="#linear-gradient" />
    </defs>
    <g id="Group_27152" data-name="Group 27152" transform="translate(9 4.506)">
        <g transform="matrix(1, 0, 0, 1, -9, -4.51)" filter="url(#Path_36603)">
            <path id="Path_36603-2" data-name="Path 36603"
                d="M156.518,33.607A19.463,19.463,0,1,1,137.055,53.07,19.485,19.485,0,0,1,156.518,33.607Z"
                transform="translate(-128.05 -27.61)" fill="#fff" opacity="0.44" />
        </g>
        <path id="Path_36604" data-name="Path 36604"
            d="M153.874,69.326A19.463,19.463,0,1,0,134.41,49.863,19.485,19.485,0,0,0,153.874,69.326Z"
            transform="translate(-133.178 -30.4)" fill="#c38e11" />
        <rect id="Rectangle_17534" data-name="Rectangle 17534" width="36.495" height="36.495"
            rx="18.248" transform="translate(2.447 1.215)" fill="#f3ac04" />
        <path id="Path_36605" data-name="Path 36605"
            d="M151.823,33.9a20.528,20.528,0,0,1,6.248-.462c7.689.83,14.522,7.271,15.248,15.039a7.461,7.461,0,0,1-1.275,5.492,8.589,8.589,0,0,1-3.991,2.339c-2.876.978-6.772-.8-9.514-1.727-3.019-1.021-5.3-2.742-7.963-4.469a16.346,16.346,0,0,0-3.9-2.053,5.512,5.512,0,0,0-4.289.239c-3.461,1.923-2.968,7.049-1.427,10.044-1.963-2.246-2.373-5.441-2.378-8.424A16.963,16.963,0,0,1,144.82,36.8,18.613,18.613,0,0,1,151.823,33.9Z"
            transform="translate(-135.16 -31.98)" opacity="0.29" fill="url(#linear-gradient)"
            style="mix-blend-mode: color-dodge;isolation: isolate" />
        <path id="Path_36606" data-name="Path 36606"
            d="M175.2,79.8a7.845,7.845,0,0,0,.15-1.354,1.556,1.556,0,0,0-.231-1.005c-.578-.744-1.757-.121-2.421.547-4.295,4.321-8.959,6.26-14.632,2.88a25.338,25.338,0,0,1-6.4-6.17,7.848,7.848,0,0,0-2.762-2.563,2.846,2.846,0,0,0-3.449.646c-4.554,6.414,3.6,13.15,9.05,15.2a18.4,18.4,0,0,0,13.11-.112C171.19,86.454,174.465,83.486,175.2,79.8Z"
            transform="translate(-139.715 -52.534)" opacity="0.14" fill="url(#radial-gradient)"
            style="mix-blend-mode: color-burn;isolation: isolate" />
        <path id="Path_36607" data-name="Path 36607"
            d="M154.784,95.622a19.532,19.532,0,0,0,13.041-7.685c.378-.53,2-3.683-.177-2.865-1.791.673-2.855,2.515-4.552,3.422-5.035,2.693-11.173,3.5-15.939-.251a6.228,6.228,0,0,0-1.172-.817,2.6,2.6,0,0,0-3.436,1.616c-.3,1.324,1.192,3.394,2.121,4.224a9.356,9.356,0,0,0,3.468,1.84A15.481,15.481,0,0,0,154.784,95.622Z"
            transform="translate(-132.375 -59.533)" opacity="0.14" fill="url(#linear-gradient-2)"
            style="mix-blend-mode: color-dodge;isolation: isolate" />
        <path id="Path_36608" data-name="Path 36608"
            d="M157.425,31.66a16.718,16.718,0,0,1,2.615.514,19.791,19.791,0,0,1,6.886,3.062,17.588,17.588,0,0,1,2.9,3.253l2.425,3.226a6.992,6.992,0,0,1,1.525,2.88,4.2,4.2,0,0,1-3.2,4.481c-2.975.743-5.5-1.393-7.8-2.888a41.622,41.622,0,0,0-8.907-4.447,18.989,18.989,0,0,0-10.253-.88,10.321,10.321,0,0,0-3.469,1.4,8.089,8.089,0,0,0-3.333,4.686c1.236-4.825,3.714-10.195,8.424-12.466C149.278,32.534,153.1,31.169,157.425,31.66Z"
            transform="translate(-134.775 -31.019)" opacity="0.14" fill="url(#radial-gradient-2)"
            style="mix-blend-mode: color-dodge;isolation: isolate" />
        <path id="Path_36609" data-name="Path 36609"
            d="M207.749,52.539c-.027-.366-.052-2.332.864-1.854.46.241.077,1.5-.01,1.881-.061.268-.232.594-.5.552C207.857,53.082,207.768,52.783,207.749,52.539Z"
            transform="translate(-202.835 -41.196)" opacity="0.14" fill="url(#radial-gradient-3)"
            style="mix-blend-mode: color-dodge;isolation: isolate" />
        <path id="Path_36610" data-name="Path 36610"
            d="M147.987,36.631a14.429,14.429,0,0,1,1.6.114,13.837,13.837,0,0,1,5.272,2.026,16.06,16.06,0,0,1,5.341,4.939A14.9,14.9,0,0,1,162.087,57c-.157.416-.435.892-.879.884a17.746,17.746,0,0,0,.1-2.622,2.357,2.357,0,0,0-.564-1.6c-1.138-1.095-3.1,1.322-4.17,1.717a3.845,3.845,0,0,1-4.816-1.56c-.538-.784-.928-1.657-1.415-2.473A12.236,12.236,0,0,0,146,47.078a15.937,15.937,0,0,0-2.418-1.213c-.906-.33-1.9-.215-2.816-.557-3.285-1.222-2-5.351.293-7.05a7.509,7.509,0,0,1,2.746-1.141A16.791,16.791,0,0,1,147.987,36.631Z"
            transform="translate(-124.781 -33.728)" opacity="0.14" fill="url(#radial-gradient-4)"
            style="mix-blend-mode: color-dodge;isolation: isolate" />
        <path id="Path_36611" data-name="Path 36611"
            d="M158.806,41.536A14.51,14.51,0,0,0,149.4,36.08c2.946,5.653,4.7,11.97,2.651,18.246-2.165,6.646-7.525,10.814-13.932,12.979.979-.331,3.73.739,4.831.866a30.428,30.428,0,0,0,5.784.177,14.6,14.6,0,0,0,8.448-3.394,17,17,0,0,0,5.328-10.31A17.839,17.839,0,0,0,158.806,41.536Z"
            transform="translate(-124.203 -33.434)" opacity="0.14" fill="url(#radial-gradient-5)"
            style="mix-blend-mode: color-dodge;isolation: isolate" />
        <path id="Path_36612" data-name="Path 36612"
            d="M147.549,46.6a.87.87,0,0,1,.577.071c1.438.614,1.564,2.1,1.831,3.415a17.143,17.143,0,0,1,.3,4.581,19.723,19.723,0,0,0-.589-3.885c-.372-1.685-1.082-1.854-2.1-3-.284-.319-.491-.872-.144-1.121A.436.436,0,0,1,147.549,46.6Z"
            transform="translate(-116.118 -39.038)" fill="#fff" opacity="0.62" />
        <path id="Path_36613" data-name="Path 36613"
            d="M154.94,44.886a.611.611,0,0,1,.266.783,1.052,1.052,0,0,1-.8.107.509.509,0,1,1,.669-.768Z"
            transform="translate(-124.334 -38.137)" fill="#fff" opacity="0.62" />
        <g id="noun_back_2102859" transform="translate(9.158 12.661)">
            <path id="Path_73" data-name="Path 73"
                d="M6.834,19.058H23.156l-4.964-4.965a.833.833,0,1,1,1.178-1.178L25.757,19.3a.837.837,0,0,1,.1.128c.014.02.023.042.035.064a.487.487,0,0,1,.068.164c.007.024.016.047.021.071a.837.837,0,0,1,0,.326c0,.025-.014.048-.021.071a.487.487,0,0,1-.068.164c-.012.021-.021.043-.035.064a.837.837,0,0,1-.1.128L19.37,26.868a.833.833,0,0,1-1.178-1.178l4.964-4.964H6.834a.833.833,0,1,1,0-1.667Z"
                transform="translate(-6.001 -12.671)" fill="#fff" />
        </g>
    </g>
</svg>
  