<svg id="Group_20" data-name="Group 20" xmlns="http://www.w3.org/2000/svg" xmlns:xlink="http://www.w3.org/1999/xlink" width="21.621" height="17.16" viewBox="0 0 21.621 17.16">
    <defs>
      <clipPath id="clip-path">
        <path id="Path_3" data-name="Path 3" d="M245.807,95.873h-1.215a8.58,8.58,0,1,1,0,17.16h1.236a8.58,8.58,0,0,0-.021-17.157Z" transform="translate(-244.592 -95.872)" fill="none"/>
      </clipPath>
    </defs>
    <g id="Group_3" data-name="Group 3" transform="translate(10.338)">
      <path id="Path_2" data-name="Path 2" d="M245.807,95.872h-1.215a8.58,8.58,0,1,1,0,17.16h1.236a8.58,8.58,0,0,0-.021-17.157Z" transform="translate(-244.592 -95.871)" fill="#bd902b"/>
    </g>
    <g id="Group_6" data-name="Group 6" transform="translate(10.338 0)">
      <g id="Group_5" data-name="Group 5" transform="translate(0 0)" clip-path="url(#clip-path)">
        <g id="Group_4" data-name="Group 4" transform="translate(-1.382 0.122)">
          <line id="Line_1" data-name="Line 1" x2="5.355" transform="translate(2.302 0.46)" fill="none" stroke="#a17d2d" stroke-miterlimit="10" stroke-width="0.5"/>
          <line id="Line_2" data-name="Line 2" x2="5.355" transform="translate(2.761 0.919)" fill="none" stroke="#a17d2d" stroke-miterlimit="10" stroke-width="0.5"/>
          <line id="Line_3" data-name="Line 3" x2="6.642" transform="translate(1.015)" fill="none" stroke="#a17d2d" stroke-miterlimit="10" stroke-width="0.5"/>
          <line id="Line_4" data-name="Line 4" x2="5.355" transform="translate(3.309 1.379)" fill="none" stroke="#a17d2d" stroke-miterlimit="10" stroke-width="0.5"/>
          <line id="Line_5" data-name="Line 5" x2="5.355" transform="translate(3.769 1.838)" fill="none" stroke="#a17d2d" stroke-miterlimit="10" stroke-width="0.5"/>
          <line id="Line_6" data-name="Line 6" x2="5.355" transform="translate(5.024 2.298)" fill="none" stroke="#a17d2d" stroke-miterlimit="10" stroke-width="0.5"/>
          <line id="Line_7" data-name="Line 7" x2="5.355" transform="translate(5.483 2.757)" fill="none" stroke="#a17d2d" stroke-miterlimit="10" stroke-width="0.5"/>
          <line id="Line_8" data-name="Line 8" x2="5.355" transform="translate(6.031 3.217)" fill="none" stroke="#a17d2d" stroke-miterlimit="10" stroke-width="0.5"/>
          <line id="Line_9" data-name="Line 9" x2="5.355" transform="translate(6.491 3.676)" fill="none" stroke="#a17d2d" stroke-miterlimit="10" stroke-width="0.5"/>
          <line id="Line_10" data-name="Line 10" x2="5.355" transform="translate(6.311 4.136)" fill="none" stroke="#a17d2d" stroke-miterlimit="10" stroke-width="0.5"/>
          <line id="Line_11" data-name="Line 11" x2="5.355" transform="translate(6.77 4.595)" fill="none" stroke="#a17d2d" stroke-miterlimit="10" stroke-width="0.5"/>
          <line id="Line_12" data-name="Line 12" x2="5.355" transform="translate(7.318 5.055)" fill="none" stroke="#a17d2d" stroke-miterlimit="10" stroke-width="0.5"/>
          <line id="Line_13" data-name="Line 13" x2="5.355" transform="translate(7.778 5.514)" fill="none" stroke="#a17d2d" stroke-miterlimit="10" stroke-width="0.5"/>
          <line id="Line_14" data-name="Line 14" x2="5.355" transform="translate(6.968 5.974)" fill="none" stroke="#a17d2d" stroke-miterlimit="10" stroke-width="0.5"/>
          <line id="Line_15" data-name="Line 15" x2="5.355" transform="translate(7.427 6.433)" fill="none" stroke="#a17d2d" stroke-miterlimit="10" stroke-width="0.5"/>
          <line id="Line_16" data-name="Line 16" x2="5.355" transform="translate(7.975 6.893)" fill="none" stroke="#a17d2d" stroke-miterlimit="10" stroke-width="0.5"/>
          <line id="Line_17" data-name="Line 17" x2="5.355" transform="translate(8.435 7.352)" fill="none" stroke="#a17d2d" stroke-miterlimit="10" stroke-width="0.5"/>
          <line id="Line_18" data-name="Line 18" x2="5.355" transform="translate(7.198 7.812)" fill="none" stroke="#a17d2d" stroke-miterlimit="10" stroke-width="0.5"/>
          <line id="Line_19" data-name="Line 19" x2="5.355" transform="translate(7.657 8.271)" fill="none" stroke="#a17d2d" stroke-miterlimit="10" stroke-width="0.5"/>
          <line id="Line_20" data-name="Line 20" x2="5.355" transform="translate(8.205 8.731)" fill="none" stroke="#a17d2d" stroke-miterlimit="10" stroke-width="0.5"/>
          <line id="Line_21" data-name="Line 21" x2="5.355" transform="translate(6.491 9.19)" fill="none" stroke="#a17d2d" stroke-miterlimit="10" stroke-width="0.5"/>
          <line id="Line_22" data-name="Line 22" x2="5.355" transform="translate(7.53 9.65)" fill="none" stroke="#a17d2d" stroke-miterlimit="10" stroke-width="0.5"/>
          <line id="Line_23" data-name="Line 23" x2="5.355" transform="translate(6.77 10.109)" fill="none" stroke="#a17d2d" stroke-miterlimit="10" stroke-width="0.5"/>
          <line id="Line_24" data-name="Line 24" x2="5.355" transform="translate(7.318 10.569)" fill="none" stroke="#a17d2d" stroke-miterlimit="10" stroke-width="0.5"/>
          <line id="Line_25" data-name="Line 25" x2="5.355" transform="translate(7.778 11.028)" fill="none" stroke="#a17d2d" stroke-miterlimit="10" stroke-width="0.5"/>
          <line id="Line_26" data-name="Line 26" x2="5.355" transform="translate(6.968 11.488)" fill="none" stroke="#a17d2d" stroke-miterlimit="10" stroke-width="0.5"/>
          <line id="Line_27" data-name="Line 27" x2="5.355" transform="translate(7.427 11.947)" fill="none" stroke="#a17d2d" stroke-miterlimit="10" stroke-width="0.5"/>
          <line id="Line_28" data-name="Line 28" x2="5.355" transform="translate(6.541 12.407)" fill="none" stroke="#a17d2d" stroke-miterlimit="10" stroke-width="0.5"/>
          <line id="Line_29" data-name="Line 29" x2="5.355" transform="translate(6.491 12.866)" fill="none" stroke="#a17d2d" stroke-miterlimit="10" stroke-width="0.5"/>
          <line id="Line_30" data-name="Line 30" x2="5.355" transform="translate(6.311 13.326)" fill="none" stroke="#a17d2d" stroke-miterlimit="10" stroke-width="0.5"/>
          <line id="Line_31" data-name="Line 31" x2="5.355" transform="translate(6.77 13.785)" fill="none" stroke="#a17d2d" stroke-miterlimit="10" stroke-width="0.5"/>
          <line id="Line_32" data-name="Line 32" x2="5.355" transform="translate(6.006 14.245)" fill="none" stroke="#a17d2d" stroke-miterlimit="10" stroke-width="0.5"/>
          <line id="Line_33" data-name="Line 33" x2="5.355" transform="translate(5.882 14.704)" fill="none" stroke="#a17d2d" stroke-miterlimit="10" stroke-width="0.5"/>
          <line id="Line_34" data-name="Line 34" x2="5.355" transform="translate(5.1 15.164)" fill="none" stroke="#a17d2d" stroke-miterlimit="10" stroke-width="0.5"/>
          <line id="Line_35" data-name="Line 35" x2="5.355" transform="translate(4.52 15.623)" fill="none" stroke="#a17d2d" stroke-miterlimit="10" stroke-width="0.5"/>
          <line id="Line_36" data-name="Line 36" x2="5.355" transform="translate(3.72 16.083)" fill="none" stroke="#a17d2d" stroke-miterlimit="10" stroke-width="0.5"/>
          <line id="Line_37" data-name="Line 37" x2="5.355" transform="translate(3 16.542)" fill="none" stroke="#a17d2d" stroke-miterlimit="10" stroke-width="0.5"/>
          <line id="Line_38" data-name="Line 38" x2="5.355" transform="translate(0 17.002)" fill="none" stroke="#a17d2d" stroke-miterlimit="10" stroke-width="0.5"/>
        </g>
      </g>
    </g>
    <path id="Path_4" data-name="Path 4" d="M147.513,107.334a1.417,1.417,0,0,1-.115.846c-.419.833-1.756,1.114-3.617.9a8.58,8.58,0,1,0-15.2-7.789c-1.109-1.261-1.583-2.4-1.191-3.174a1.417,1.417,0,0,1,.611-.6,2.13,2.13,0,0,0-1.626.988c-.994,1.977,2.971,5.98,8.858,8.94.845.425,1.684.805,2.5,1.139a31.339,31.339,0,0,1-9.721-4.915,8.579,8.579,0,0,0,14.61,6.845c.123-.123.24-.249.353-.377,2.417.4,4.191.122,4.712-.912A2.13,2.13,0,0,0,147.513,107.334Z" transform="translate(-126.22 -95.871)" fill="#f0c330"/>
    <g id="Group_7" data-name="Group 7" transform="translate(3.406 1.573)" opacity="0.5">
      <path id="Path_6" data-name="Path 6" d="M172.23,127.915a7.033,7.033,0,0,1-7-6.508l-.012-.128.338.217a6.7,6.7,0,1,0-.012-1.026s-.01.132-.01.132l-.3-.241a7.014,7.014,0,1,1,6.993,7.554Z" transform="translate(-165.223 -113.888)" fill="#bd902b"/>
    </g>
    <g id="Group_8" data-name="Group 8" transform="translate(4.136 2.3)">
      <path id="Path_7" data-name="Path 7" d="M179.865,134.762a6.282,6.282,0,0,1-6.208-5.327l-.018-.1.241.145a6.074,6.074,0,1,0-.082-1c0,.024,0,.048,0,.072,0,0,0,.087,0,.087l-.21-.159a6.28,6.28,0,1,1,6.28,6.28Z" transform="translate(-173.585 -122.202)" fill="#b98d3d"/>
    </g>
    <g id="Group_9" data-name="Group 9" transform="translate(3.207 1.565)">
      <line id="Line_39" data-name="Line 39" y2="0.398" transform="translate(0.199)" fill="none" stroke="#bd902b" stroke-linecap="round" stroke-linejoin="round" stroke-width="1"/>
      <line id="Line_40" data-name="Line 40" x1="0.398" transform="translate(0 0.199)" fill="none" stroke="#bd902b" stroke-linecap="round" stroke-linejoin="round" stroke-width="1"/>
    </g>
    <g id="Group_10" data-name="Group 10" transform="translate(19.798 14.998)">
      <line id="Line_41" data-name="Line 41" y2="0.398" transform="translate(0.199 0)" fill="none" stroke="#bd902b" stroke-linecap="round" stroke-linejoin="round" stroke-width="1"/>
      <line id="Line_42" data-name="Line 42" x1="0.398" transform="translate(0 0.199)" fill="none" stroke="#bd902b" stroke-linecap="round" stroke-linejoin="round" stroke-width="1"/>
    </g>
    <g id="Group_11" data-name="Group 11" transform="translate(17.427 15.595)">
      <line id="Line_43" data-name="Line 43" y2="0.398" transform="translate(0.199 0)" fill="none" stroke="#bd902b" stroke-linecap="round" stroke-linejoin="round" stroke-width="1"/>
      <line id="Line_44" data-name="Line 44" x1="0.398" transform="translate(0 0.199)" fill="none" stroke="#bd902b" stroke-linecap="round" stroke-linejoin="round" stroke-width="1"/>
    </g>
    <g id="Group_12" data-name="Group 12" transform="translate(19.714 12.481)">
      <line id="Line_45" data-name="Line 45" x1="0.084" fill="none" stroke="#bd902b" stroke-linecap="round" stroke-linejoin="round" stroke-width="1"/>
    </g>
    <g id="Group_13" data-name="Group 13" transform="translate(2.15 4.205)">
      <line id="Line_46" data-name="Line 46" x1="0.084" fill="none" stroke="#bd902b" stroke-linecap="round" stroke-linejoin="round" stroke-width="1"/>
    </g>
    <g id="Group_14" data-name="Group 14" transform="translate(0.966 9.134)">
      <line id="Line_47" data-name="Line 47" x1="0.084" transform="translate(0)" fill="none" stroke="#bd902b" stroke-linecap="round" stroke-linejoin="round" stroke-width="1"/>
    </g>
    <g id="Group_15" data-name="Group 15" transform="translate(1.579 2.539)">
      <line id="Line_48" data-name="Line 48" y2="0.398" transform="translate(0.199 0)" fill="none" stroke="#bd902b" stroke-linecap="round" stroke-linejoin="round" stroke-width="1"/>
      <line id="Line_49" data-name="Line 49" x1="0.398" transform="translate(0 0.199)" fill="none" stroke="#bd902b" stroke-linecap="round" stroke-linejoin="round" stroke-width="1"/>
    </g>
    <g id="Group_17" data-name="Group 17" transform="translate(8.821 7.03)" opacity="0.2">
      <path id="Path_10" data-name="Path 10" d="M229.55,273.938a7.079,7.079,0,0,1-.778.044c-.042,0-.082,0-.124,0l-1.426,1.426c.249.045.5.081.757.1Z" transform="translate(-227.223 -265.417)" fill="#c58e23"/>
      <path id="Path_11" data-name="Path 11" d="M326.359,177.13c-.023-.256-.059-.508-.1-.757l-1.426,1.426c0,.041,0,.082,0,.124a7.086,7.086,0,0,1-.044.778Z" transform="translate(-316.267 -176.373)" fill="#c58e23"/>
    </g>
    <g id="Group_18" data-name="Group 18" transform="translate(6.215 4.424)" opacity="0.2">
      <path id="Path_12" data-name="Path 12" d="M200.19,267.063a6.916,6.916,0,0,1-1.631-.554l-1.177,1.184a8.534,8.534,0,0,0,1.521.659Z" transform="translate(-197.382 -256.031)" fill="#c58e23"/>
      <path id="Path_13" data-name="Path 13" d="M318.777,146.532l-1.162,1.162a6.96,6.96,0,0,1,.539,1.641l1.282-1.282A8.526,8.526,0,0,0,318.777,146.532Z" transform="translate(-307.115 -146.532)" fill="#c58e23"/>
    </g>
    <g id="Group_19" data-name="Group 19" transform="translate(2.223 0.433)" opacity="0.2">
      <path id="Path_14" data-name="Path 14" d="M152.992,209.85l-1.315,1.316a8.591,8.591,0,0,0,2.772,4l1.137-1.145A7.015,7.015,0,0,1,152.992,209.85Z" transform="translate(-151.677 -200.329)" fill="#c58e23"/>
      <path id="Path_15" data-name="Path 15" d="M262.447,100.827l-1.275,1.275a7.015,7.015,0,0,1,4.156,2.612l1.114-1.114A8.591,8.591,0,0,0,262.447,100.827Z" transform="translate(-251.61 -100.827)" fill="#c58e23"/>
    </g>
    <path id="Path_16" data-name="Path 16" d="M283.568,191.476a.986.986,0,0,1-.643.254,1.108,1.108,0,0,1-.643-.254,1.085,1.085,0,0,1,.643-.254A.948.948,0,0,1,283.568,191.476Z" transform="translate(-268.653 -182.895)" fill="#f0c330"/>
    <path id="Path_17" data-name="Path 17" d="M285.347,204.87a.987.987,0,0,1-.634-.275,1.109,1.109,0,0,1-.275-.634,1.085,1.085,0,0,1,.634.275A.948.948,0,0,1,285.347,204.87Z" transform="translate(-270.62 -194.521)" fill="#f0c330"/>
    <path id="Path_18" data-name="Path 18" d="M285.347,173.876a.986.986,0,0,1-.275.634,1.108,1.108,0,0,1-.634.275,1.085,1.085,0,0,1,.275-.634A.948.948,0,0,1,285.347,173.876Z" transform="translate(-270.62 -167.063)" fill="#f0c330"/>
    <path id="Path_19" data-name="Path 19" d="M195.121,191.476a.987.987,0,0,1,.643-.254,1.108,1.108,0,0,1,.643.254,1.085,1.085,0,0,1-.643.254A.948.948,0,0,1,195.121,191.476Z" transform="translate(-189.104 -182.895)" fill="#f0c330"/>
    <path id="Path_20" data-name="Path 20" d="M197.278,173.876a.986.986,0,0,1,.634.275,1.109,1.109,0,0,1,.275.634,1.085,1.085,0,0,1-.634-.275A.948.948,0,0,1,197.278,173.876Z" transform="translate(-191.072 -167.064)" fill="#f0c330"/>
    <path id="Path_21" data-name="Path 21" d="M198.024,204.565a.931.931,0,0,1,.21-.328,1.108,1.108,0,0,1,.634-.275,1.086,1.086,0,0,1-.275.634.931.931,0,0,1-.238.173Z" transform="translate(-191.753 -194.521)" fill="#f0c330"/>
  </svg>
  