<svg xmlns="http://www.w3.org/2000/svg" width="20" height="14.441" viewBox="0 0 20 14.441">
    <g id="noun_back_2102859" transform="translate(-6.001 -12.671)">
      <path id="Path_73" data-name="Path 73" d="M25.168,19.058H8.846l4.964-4.965a.833.833,0,0,0-1.178-1.178L6.245,19.3a.837.837,0,0,0-.1.128c-.014.02-.023.042-.035.064a.487.487,0,0,0-.068.164c-.007.024-.016.047-.021.071a.837.837,0,0,0,0,.326c0,.025.014.048.021.071a.487.487,0,0,0,.068.164c.012.021.021.043.035.064a.837.837,0,0,0,.1.128l6.387,6.386A.833.833,0,1,0,13.81,25.69L8.846,20.725H25.168a.833.833,0,1,0,0-1.667Z" transform="translate(0 0)" fill="#fff"/>
    </g>
  </svg>
  